<svg xmlns="http://www.w3.org/2000/svg" viewBox="0 0 100 120" role="img" aria-label="Touros Bravos">
  <defs>
    <linearGradient id="b16" x1="0" y1="0" x2="0" y2="1">
      <stop offset="0%" stop-color="#c2185b"/><stop offset="100%" stop-color="#6a0028"/>
    </linearGradient>
  </defs>
  <path d="M 10 8 L 90 8 L 90 70 Q 90 100, 50 116 Q 10 100, 10 70 Z" fill="url(#b16)" stroke="#fff" stroke-width="3"/>
  <path d="M 25 38 Q 25 28, 38 30 L 38 50 Z M 75 38 Q 75 28, 62 30 L 62 50 Z" fill="#fff"/>
  <path d="M 30 45 Q 30 70, 50 75 Q 70 70, 70 45 Q 60 35, 50 35 Q 40 35, 30 45 Z" fill="#fff"/>
  <circle cx="42" cy="55" r="2" fill="#6a0028"/><circle cx="58" cy="55" r="2" fill="#6a0028"/>
  <ellipse cx="50" cy="65" rx="4" ry="2" fill="#6a0028"/>
  <text x="50" y="100" font-family="Georgia,serif" font-size="9" font-weight="700" text-anchor="middle" fill="#fff" letter-spacing="1">TOUROS</text>
</svg>
